<?xml version="1.0" standalone="no"?>
<!DOCTYPE svg PUBLIC "-//W3C//DTD SVG 20010904//EN"
 "http://www.w3.org/TR/2001/REC-SVG-20010904/DTD/svg10.dtd">
<svg version="1.0" xmlns="http://www.w3.org/2000/svg"
 width="400.000000pt" height="300.000000pt" viewBox="0 0 400.000000 300.000000"
 preserveAspectRatio="xMidYMid meet">

<g transform="translate(0.000000,300.000000) scale(0.100000,-0.100000)"
fill="#000000" stroke="none">
<path d="M1500 2421 c-81 -25 -130 -75 -151 -154 -15 -54 -2 -123 30 -167 25
-35 88 -69 141 -76 l45 -6 0 -103 c0 -73 4 -108 13 -117 11 -11 12 -6 6 27 -5
22 -8 78 -7 125 l1 85 -42 1 c-55 1 -111 29 -144 72 -20 26 -27 49 -30 97 -6
89 26 148 100 186 104 53 215 -9 257 -143 l12 -37 62 34 c132 73 322 66 444
-15 l31 -21 13 38 c31 95 105 163 177 163 141 0 231 -153 166 -281 -29 -59
-124 -109 -179 -95 -23 6 -23 5 -22 -92 1 -53 -2 -110 -6 -127 -7 -25 -6 -28
5 -17 9 9 13 44 13 117 l0 103 45 6 c94 13 163 76 176 162 25 168 -155 297
-290 209 -30 -20 -75 -83 -95 -132 l-13 -32 -36 24 c-109 72 -328 72 -441 1
l-39 -25 -16 42 c-22 59 -68 112 -119 136 -45 22 -66 24 -107 12z"/>
<path d="M1493 2339 c-65 -19 -101 -110 -67 -169 25 -41 92 -67 141 -54 97 24
109 175 18 218 -37 18 -46 18 -92 5z"/>
<path d="M2402 2324 c-31 -22 -52 -66 -52 -112 0 -101 169 -142 215 -51 29 55
16 125 -29 161 -27 22 -104 23 -134 2z"/>
<path d="M1716 2078 c-24 -34 -20 -73 10 -97 33 -26 56 -27 77 -3 38 42 9 122
-43 122 -18 0 -34 -8 -44 -22z"/>
<path d="M2190 2073 c-25 -32 -20 -69 12 -95 43 -37 93 -12 91 46 -2 72 -63
100 -103 49z m75 -63 c3 -5 1 -10 -4 -10 -6 0 -11 5 -11 10 0 6 2 10 4 10 3 0
8 -4 11 -10z"/>
<path d="M1965 1979 c-55 -5 -53 -6 33 -7 52 -1 107 -8 126 -16 42 -17 77 -66
83 -116 3 -22 9 -37 13 -35 4 3 4 24 -1 46 -24 106 -99 144 -254 128z"/>
<path d="M1849 1946 c-50 -34 -88 -133 -59 -151 6 -4 10 8 10 30 0 49 23 89
67 120 21 14 33 25 28 25 -6 0 -27 -11 -46 -24z"/>
<path d="M1965 1901 c-3 -5 6 -22 19 -38 l25 -28 28 28 c24 23 26 29 13 37
-19 12 -77 13 -85 1z"/>
<path d="M2126 1813 c-6 -14 -5 -15 5 -6 7 7 10 15 7 18 -3 3 -9 -2 -12 -12z"/>
<path d="M1125 1660 c-9 -15 13 -40 35 -40 22 0 44 25 35 40 -3 5 -19 10 -35
10 -16 0 -32 -5 -35 -10z"/>
<path d="M857 1644 c-4 -4 -7 -63 -7 -131 l0 -123 44 0 45 0 3 88 c2 48 1 105
-2 127 -5 37 -7 40 -40 43 -20 2 -39 0 -43 -4z"/>
<path d="M1024 1628 l-19 -23 23 19 c21 18 27 26 19 26 -2 0 -12 -10 -23 -22z"/>
<path d="M1407 1643 c-4 -3 -7 -19 -7 -34 0 -18 -6 -29 -17 -32 -17 -4 -17 -5
0 -6 16 -1 18 -10 16 -88 l-2 -88 37 -3 37 -3 -3 127 -3 127 -26 4 c-14 2 -29
0 -32 -4z"/>
<path d="M1791 1632 c-53 -26 -76 -65 -75 -124 0 -45 5 -55 37 -84 20 -19 46
-34 57 -34 19 0 20 6 20 126 l0 126 33 -4 c17 -3 41 -8 52 -12 13 -5 11 -2 -5
8 -33 20 -77 20 -119 -2z"/>
<path d="M2297 1644 c-4 -4 -7 -63 -7 -131 l0 -123 35 0 36 0 -3 128 -3 127
-25 3 c-14 2 -29 0 -33 -4z"/>
<path d="M2430 1520 l0 -130 35 0 35 0 0 130 0 130 -35 0 -35 0 0 -130z"/>
<path d="M977 1592 c-15 -16 -15 -18 3 -18 12 0 18 7 17 18 -1 10 -2 18 -3 18
0 0 -8 -8 -17 -18z"/>
<path d="M1120 1485 l0 -95 35 0 35 0 0 95 0 95 -35 0 -35 0 0 -95z"/>
<path d="M1275 1554 c-28 -30 -34 -96 -12 -125 12 -16 50 -39 64 -39 4 0 7 43
5 95 -4 106 -13 117 -57 69z"/>
<path d="M1548 1569 c-34 -19 -22 -59 35 -111 42 -39 49 -50 37 -58 -20 -13
-4 -13 20 0 48 26 45 73 -7 113 -39 31 -53 48 -48 58 8 12 -16 11 -37 -2z"/>
<path d="M1630 1576 c0 -2 7 -7 16 -10 8 -3 12 -2 9 4 -6 10 -25 14 -25 6z"/>
<path d="M2050 1570 c-8 -5 -10 -10 -5 -10 6 0 17 5 25 10 8 5 11 10 5 10 -5
0 -17 -5 -25 -10z"/>
<path d="M2150 1550 c0 -17 -5 -30 -12 -30 -10 0 -10 -2 0 -9 9 -5 13 -25 11
-62 l-3 -54 37 -3 37 -3 0 75 c0 63 -4 80 -20 96 -30 30 -50 26 -50 -10z"/>
<path d="M2587 1560 c-49 -39 -41 -131 12 -160 32 -17 36 -12 33 35 l-4 45 61
0 c59 0 61 1 61 25 0 15 -12 38 -27 53 l-28 27 -3 -47 c-3 -46 -4 -48 -34 -48
-30 0 -30 1 -26 45 4 51 -6 56 -45 25z"/>
<path d="M2810 1485 l0 -95 35 0 35 0 0 49 c0 27 4 61 10 76 7 17 7 24 0 20
-6 -4 -10 5 -10 19 0 23 -4 26 -35 26 l-35 0 0 -95z"/>
<path d="M2910 1565 c-10 -12 -7 -13 22 -5 18 6 33 10 33 10 1 0 21 -40 45
-90 24 -49 47 -90 51 -90 4 0 15 19 24 43 24 59 28 75 15 53 -11 -16 -15 -12
-38 38 l-25 56 -57 0 c-38 0 -62 -5 -70 -15z"/>
<path d="M3126 1555 c-9 -26 -7 -32 5 -12 6 10 9 21 6 23 -2 3 -7 -2 -11 -11z"/>
<path d="M1000 1555 c0 -5 5 -17 10 -25 5 -8 10 -10 10 -5 0 6 -5 17 -10 25
-5 8 -10 11 -10 5z"/>
<path d="M2062 1519 c-30 -9 -52 -39 -52 -70 0 -16 48 -59 65 -59 12 0 15 13
15 64 0 42 4 66 13 69 20 9 -6 6 -41 -4z"/>
<path d="M1950 1490 c0 -12 -8 -33 -17 -48 -16 -24 -16 -26 -1 -14 14 12 17
10 21 -15 2 -15 5 0 6 35 0 34 -1 62 -4 62 -3 0 -5 -9 -5 -20z"/>
<path d="M1030 1485 c0 -5 5 -17 10 -25 5 -8 10 -10 10 -5 0 6 -5 17 -10 25
-5 8 -10 11 -10 5z"/>
<path d="M1051 1435 c1 -19 18 -51 18 -35 0 8 -4 22 -9 30 -5 8 -9 11 -9 5z"/>
<path d="M2719 1413 c-13 -16 -12 -17 4 -4 16 13 21 21 13 21 -2 0 -10 -8 -17
-17z"/>
<path d="M3026 1345 c-11 -8 -15 -15 -9 -15 6 0 16 7 23 15 16 19 11 19 -14 0z"/>
<path d="M1572 1180 c0 -14 2 -19 5 -12 2 6 2 18 0 25 -3 6 -5 1 -5 -13z"/>
<path d="M2411 1167 c-1 -10 -8 -50 -17 -88 -15 -68 -17 -71 -57 -88 -57 -25
-133 -108 -147 -161 -9 -32 -9 -59 0 -108 6 -35 9 -66 7 -69 -14 -13 -156 -25
-247 -20 -135 8 -153 13 -146 41 19 67 18 133 -2 178 -26 60 -94 125 -143 138
-33 9 -40 16 -48 48 -5 20 -14 55 -20 77 l-10 40 5 -40 c3 -22 7 -54 10 -70 5
-30 5 -31 -54 -43 -101 -21 -145 -74 -145 -173 0 -72 31 -138 86 -183 66 -53
100 -66 169 -66 56 0 68 4 99 30 32 26 40 28 70 20 44 -13 314 -13 357 0 29 8
39 5 74 -20 34 -25 51 -30 99 -30 73 0 100 10 162 63 62 51 90 111 90 188 0
99 -55 161 -156 173 l-54 7 14 75 c8 42 12 81 9 87 -2 7 -5 4 -5 -6z m-759
-187 c48 -14 135 -107 144 -156 10 -52 -3 -135 -24 -164 -10 -14 -34 -36 -53
-48 -64 -45 -172 -12 -248 74 -140 159 -22 350 181 294z m859 -12 c48 -27 68
-55 75 -111 9 -62 -11 -122 -58 -173 -62 -67 -98 -86 -172 -87 -59 -2 -67 1
-97 28 -86 81 -78 215 18 308 45 43 76 55 147 56 32 1 61 -6 87 -21z"/>
<path d="M1525 907 c-40 -34 -45 -94 -11 -151 46 -78 94 -101 160 -76 29 11
52 76 41 118 -10 39 -65 103 -102 118 -44 19 -58 18 -88 -9z"/>
<path d="M2331 894 c-30 -22 -51 -73 -51 -126 0 -90 41 -116 123 -80 62 28 99
80 105 148 4 51 3 54 -22 64 -42 16 -128 12 -155 -6z"/>
</g>
</svg>
