<svg xmlns="http://www.w3.org/2000/svg" version="1.1" xmlns:xlink="http://www.w3.org/1999/xlink" xmlns:svgjs="http://svgjs.dev/svgjs" width="1000" height="260" viewBox="0 0 1000 260"><g transform="matrix(1,0,0,1,-0.6060606060606233,0.48260906576211937)"><svg viewBox="0 0 396 103" data-background-color="#ffffff" preserveAspectRatio="xMidYMid meet" height="260" width="1000" xmlns="http://www.w3.org/2000/svg" xmlns:xlink="http://www.w3.org/1999/xlink"><g id="tight-bounds" transform="matrix(1,0,0,1,0.2400000000000091,-0.19099659995541174)"><svg viewBox="0 0 395.52 103.38209308747204" height="103.38209308747204" width="395.52"><g><svg viewBox="0 0 568.2930465302484 148.54198178942463" height="103.38209308747204" width="395.52"><g transform="matrix(1,0,0,1,0,53.74280103989962)"><svg viewBox="0 0 395.52 41.05637970962538" height="41.05637970962538" width="395.52"><g id="textblocktransform"><svg viewBox="0 0 395.52 41.05637970962538" height="41.05637970962538" width="395.52" id="textblock"><g><svg viewBox="0 0 395.52 41.05637970962538" height="41.05637970962538" width="395.52"><g transform="matrix(1,0,0,1,0,0)"><svg width="395.52" viewBox="3.049999952316284 -37.599998474121094 367.01751708984375 38.099998474121094" height="41.05637970962538" data-palette-color="#ea9937"><path d="M36.4-1.4L36.4-1.4Q36.7-0.85 36.58-0.43 36.45 0 35.8 0L35.8 0 27.1 0Q25.9 0 25.5-0.9L25.5-0.9 18.45-15.65Q18.05-16.25 17.4-15.45L17.4-15.45 13.45-10.5Q13.15-10.15 13.15-9.45L13.15-9.45 13.15-1.3Q13.15 0 11.65 0L11.65 0 4.25 0Q3.55 0 3.3-0.28 3.05-0.55 3.05-1.15L3.05-1.15 3.05-36.05Q3.05-37.1 3.9-37.1L3.9-37.1 12.3-37.1Q13.15-37.1 13.15-36.15L13.15-36.15 13.15-22.4Q13.15-21.85 13.35-21.85 13.55-21.85 13.85-22.2L13.85-22.2 24.4-36.15Q24.75-36.65 25.13-36.88 25.5-37.1 26.35-37.1L26.35-37.1 33.15-37.1Q33.9-37.1 34.2-36.7 34.5-36.3 34.05-35.8L34.05-35.8 25.2-25.2Q24.75-24.55 25.1-23.75L25.1-23.75 36.4-1.4ZM41.85-37.1L50.25-37.1Q51.1-37.1 51.1-36.15L51.1-36.15 51.1-1.35Q51.1-0.6 50.72-0.3 50.35 0 49.6 0L49.6 0 42.2 0Q41.5 0 41.25-0.28 41-0.55 41-1.15L41-1.15 41-36.05Q41-37.1 41.85-37.1L41.85-37.1ZM58.35-37.1L58.35-37.1Q59.45-37.1 61.12-37.1 62.8-37.1 64.62-37.1 66.45-37.1 68.05-37.1 69.65-37.1 70.6-37.05L70.6-37.05Q77.35-36.85 81.72-34.52 86.1-32.2 88.2-28.13 90.3-24.05 90.3-18.65L90.3-18.65Q90.3-13.15 88.12-8.93 85.95-4.7 81.52-2.35 77.1 0 70.5 0L70.5 0 58.45 0Q57.15 0 57.15-1.35L57.15-1.35 57.15-35.95Q57.15-36.6 57.42-36.85 57.7-37.1 58.35-37.1L58.35-37.1ZM67.75-30.05L67.75-30.05Q67.25-30.05 67.25-29.35L67.25-29.35 67.25-7.75Q67.25-7.05 67.9-7.05L67.9-7.05 68.55-7.05Q72.15-7.05 74.62-8.18 77.1-9.3 78.4-11.88 79.7-14.45 79.7-18.7L79.7-18.7Q79.7-22.6 78.57-25.1 77.45-27.6 75.1-28.83 72.75-30.05 69.15-30.05L69.15-30.05 67.75-30.05ZM115.94-27.75L115.94-27.75Q114.94-28.85 113.47-29.75 111.99-30.65 108.99-30.65L108.99-30.65Q106.04-30.65 104.69-29.68 103.34-28.7 103.34-27.4L103.34-27.4Q103.34-26.85 103.64-26.28 103.94-25.7 104.72-25.15 105.49-24.6 106.94-24.25L106.94-24.25 115.04-22.05Q119.74-20.8 121.89-17.95 124.04-15.1 124.04-11.35L124.04-11.35Q124.04-7.75 122.17-5.08 120.29-2.4 116.84-0.95 113.39 0.5 108.59 0.5L108.59 0.5Q105.04 0.5 101.92-0.3 98.79-1.1 96.42-2.58 94.04-4.05 92.84-6.05L92.84-6.05Q92.54-6.55 92.59-6.88 92.64-7.2 93.14-7.6L93.14-7.6 97.64-10.7Q98.29-11.15 98.72-11.08 99.14-11 99.39-10.65L99.39-10.65Q100.54-9.15 101.69-8.22 102.84-7.3 104.32-6.88 105.79-6.45 107.84-6.45L107.84-6.45Q110.84-6.45 112.64-7.33 114.44-8.2 114.44-9.95L114.44-9.95Q114.44-10.65 114.07-11.28 113.69-11.9 112.92-12.4 112.14-12.9 110.79-13.25L110.79-13.25 103.19-15.25Q100.24-16.05 98.14-17.65 96.04-19.25 94.92-21.4 93.79-23.55 93.79-26.05L93.79-26.05Q93.79-29.25 95.62-31.88 97.44-34.5 100.79-36.05 104.14-37.6 108.69-37.6L108.69-37.6Q111.59-37.6 114.22-36.95 116.84-36.3 118.92-35.1 120.99-33.9 122.19-32.3L122.19-32.3Q122.39-31.95 122.52-31.6 122.64-31.25 122.19-30.9L122.19-30.9 117.29-27.35Q116.99-27.1 116.72-27.18 116.44-27.25 115.94-27.75L115.94-27.75ZM144.09 0.5L144.09 0.5Q138.94 0.5 135.07-1.88 131.19-4.25 129.09-8.53 126.99-12.8 126.99-18.4L126.99-18.4Q126.99-24.25 129.22-28.55 131.44-32.85 135.44-35.23 139.44-37.6 144.64-37.6L144.64-37.6Q148.99-37.6 152.24-36.02 155.49-34.45 157.52-31.98 159.54-29.5 160.09-26.85L160.09-26.85Q160.29-25.9 160.14-25.63 159.99-25.35 159.44-25.25L159.44-25.25 151.84-24.1Q151.29-24.1 151.14-24.33 150.99-24.55 150.89-25L150.89-25Q150.64-26.5 149.84-27.78 149.04-29.05 147.69-29.85 146.34-30.65 144.44-30.65L144.44-30.65Q142.29-30.65 140.74-29.48 139.19-28.3 138.37-25.7 137.54-23.1 137.54-18.7L137.54-18.7Q137.54-14.05 138.44-11.4 139.34-8.75 140.97-7.63 142.59-6.5 144.79-6.5L144.79-6.5Q146.09-6.5 147.12-6.85 148.14-7.2 148.92-7.83 149.69-8.45 150.22-9.28 150.74-10.1 151.04-11.05L151.04-11.05 151.14-12Q151.44-12.8 150.69-12.8L150.69-12.8 145.34-12.8Q144.89-12.8 144.67-13 144.44-13.2 144.44-13.8L144.44-13.8 144.44-18.1Q144.44-18.85 145.39-18.85L145.39-18.85 159.09-18.75Q159.89-18.75 160.32-18.38 160.74-18 160.74-17.4L160.74-17.4 160.74-0.8Q160.74-0.45 160.54-0.23 160.34 0 159.94 0L159.94 0 158.19 0Q157.74 0 157.39-0.2 157.04-0.4 156.74-0.9L156.74-0.9 154.99-4.1Q154.89-4.3 154.77-4.3 154.64-4.3 154.49-4.05L154.49-4.05Q153.54-3.05 152.27-2 150.99-0.95 149.02-0.23 147.04 0.5 144.09 0.5L144.09 0.5ZM165.24 0L165.24 0Q164.74 0 164.51-0.48 164.29-0.95 164.54-1.65L164.54-1.65 176.84-36.05Q177.04-36.6 177.34-36.85 177.64-37.1 178.24-37.1L178.24-37.1 186.94-37.1Q188.19-37.1 188.64-35.85L188.64-35.85 200.79-1.55Q200.94-1.1 200.79-0.55 200.64 0 200.09 0L200.09 0 191.49 0Q190.69 0 190.44-0.8L190.44-0.8 188.24-7.3Q188.14-7.5 188.01-7.68 187.89-7.85 187.49-7.85L187.49-7.85 176.14-7.85Q175.59-7.85 175.44-7.3L175.44-7.3 173.09-0.7Q172.99-0.4 172.74-0.2 172.49 0 171.99 0L171.99 0 165.24 0ZM178.29-15.45L185.24-15.45Q185.94-15.45 185.69-16.4L185.69-16.4 182.09-26.45Q181.99-26.7 181.79-26.7 181.59-26.7 181.49-26.45L181.49-26.45 177.84-16.4Q177.49-15.45 178.29-15.45L178.29-15.45ZM205.29-36.05L205.29-36.05Q205.29-37.1 206.14-37.1L206.14-37.1 214.54-37.1Q215.39-37.1 215.39-36.15L215.39-36.15 215.39-8Q215.39-7.35 215.94-7.35L215.94-7.35 231.44-7.35Q232.49-7.35 232.49-6.5L232.49-6.5 232.49-1Q232.49-0.6 232.21-0.3 231.94 0 231.34 0L231.34 0 206.49 0Q205.79 0 205.54-0.28 205.29-0.55 205.29-1.15L205.29-1.15 205.29-36.05ZM237.03-36.05L237.03-36.05Q237.03-37.1 237.88-37.1L237.88-37.1 246.28-37.1Q247.13-37.1 247.13-36.15L247.13-36.15 247.13-8Q247.13-7.35 247.68-7.35L247.68-7.35 263.18-7.35Q264.23-7.35 264.23-6.5L264.23-6.5 264.23-1Q264.23-0.6 263.96-0.3 263.68 0 263.08 0L263.08 0 238.23 0Q237.53 0 237.28-0.28 237.03-0.55 237.03-1.15L237.03-1.15 237.03-36.05ZM268.78-36.05L268.78-36.05Q268.78-37.1 269.63-37.1L269.63-37.1 295.78-37.1Q296.58-37.1 296.58-36.15L296.58-36.15 296.58-30.95Q296.58-29.75 295.38-29.75L295.38-29.75 279.93-29.75Q278.88-29.75 278.88-28.85L278.88-28.85 278.88-23.2Q278.88-22.25 279.68-22.25L279.68-22.25 289.43-22.25Q290.38-22.25 290.38-21.35L290.38-21.35 290.38-15.8Q290.38-15.5 290.21-15.28 290.03-15.05 289.58-15.05L289.58-15.05 279.63-15.05Q278.88-15.05 278.88-14.35L278.88-14.35 278.88-8Q278.88-7.35 279.43-7.35L279.43-7.35 296.08-7.35Q297.08-7.35 297.08-6.5L297.08-6.5 297.08-1Q297.08-0.6 296.83-0.3 296.58 0 296.03 0L296.03 0 269.98 0Q268.78 0 268.78-1.15L268.78-1.15 268.78-36.05ZM333.23-1.5L333.23-1.5Q333.48-0.9 333.2-0.45 332.93 0 332.38 0L332.38 0 323.83 0Q322.88 0 322.58-0.95L322.58-0.95 317.58-14.4Q317.28-15.15 316.08-15.15L316.08-15.15 312.63-15.15Q312.28-15.15 312.15-14.95 312.03-14.75 312.03-14.6L312.03-14.6 312.03-1.35Q312.03 0 310.53 0L310.53 0 303.08 0Q302.43 0 302.18-0.28 301.93-0.55 301.93-1.15L301.93-1.15 301.93-36.05Q301.93-37.1 302.78-37.1L302.78-37.1 318.98-37.1Q325.98-37.1 329.83-34.4 333.68-31.7 333.68-26.7L333.68-26.7Q333.68-24.25 332.78-22.25 331.88-20.25 330.38-18.88 328.88-17.5 326.98-16.8L326.98-16.8Q326.53-16.6 326.78-15.9L326.78-15.9 333.23-1.5ZM318.33-21.85L318.33-21.85Q320.73-21.85 321.98-22.98 323.23-24.1 323.23-26.05L323.23-26.05Q323.23-28.2 321.8-29.33 320.38-30.45 318.33-30.45L318.33-30.45 313.08-30.45Q312.03-30.45 312.03-29.55L312.03-29.55 312.03-22.85Q312.03-21.85 312.78-21.85L312.78-21.85 318.33-21.85ZM369.23-37.1L369.23-37.1Q369.83-37.1 370-36.8 370.18-36.5 369.88-36.05L369.88-36.05 358.13-16.95Q357.83-16.5 357.75-15.95 357.68-15.4 357.68-13.95L357.68-13.95 357.68-1.35Q357.68 0 356.18 0L356.18 0 348.78 0Q348.08 0 347.83-0.28 347.58-0.55 347.58-1.15L347.58-1.15 347.58-14.45Q347.58-15.2 347.43-15.58 347.28-15.95 346.93-16.5L346.93-16.5 335.18-35.8Q334.88-36.35 335.08-36.73 335.28-37.1 336.03-37.1L336.03-37.1 344.83-37.1Q345.53-37.1 345.8-36.9 346.08-36.7 346.43-36.15L346.43-36.15 353.18-24.1Q353.43-23.65 353.6-23.63 353.78-23.6 354.08-24.05L354.08-24.05 360.73-36.15Q360.98-36.75 361.3-36.93 361.63-37.1 362.28-37.1L362.28-37.1 369.23-37.1Z" opacity="1" transform="matrix(1,0,0,1,0,0)" fill="#ea9937" class="undefined-text-0" data-fill-palette-color="primary" id="text-0"></path></svg></g></svg></g></svg></g></svg></g><g transform="matrix(1,0,0,1,419.7510647408238,0)"><svg viewBox="0 0 148.54198178942463 148.54198178942463" height="148.54198178942463" width="148.54198178942463"><g><svg viewBox="0 0 148.54198178942463 148.54198178942463" height="148.54198178942463" width="148.54198178942463"><g transform="matrix(1,0,0,1,46.37251684939794,39.25931002331538)"><svg viewBox="0 0 55.79694809062874 70.02336174279387" height="70.02336174279387" width="55.79694809062874"><g><svg xmlns="http://www.w3.org/2000/svg" xmlns:xlink="http://www.w3.org/1999/xlink" version="1.1" x="0" y="0" viewBox="27.789005279541016 44.71500778198242 40.05202102661133 50.26398849487305" enable-background="new 0 0 100 100" xml:space="preserve" height="70.02336174279387" width="55.79694809062874" class="icon-s-0" data-fill-palette-color="accent" id="s-0"><g fill="#ea9937" data-fill-palette-color="accent"><path d="M47.193 94.979l-6.092-5.136 4.678-11.35 0.129-0.514v-0.521l-0.15-0.508-0.272-0.442-0.436-0.394-2.177-1.509L42.304 74.1l-0.391-0.596-0.23-0.66-0.07-0.571-0.051-8.999-0.1-0.572-0.258-0.522-0.396-0.425-0.511-0.282-0.565-0.124-0.589 0.057-0.54 0.219-0.499 0.414-7.259 8.117-0.521 0.318-0.497 0.107-0.674-0.183-0.42-0.301-0.561-0.606-0.26-0.412-0.123-0.438 0.027-0.463 0.148-0.38 0.154-0.238 3.234-3.52 9.844-10.051 0.178-0.357 0.104-0.398 0.019-0.404-0.066-0.396-0.17-0.428-0.23-0.342-1.735-2.238-0.178-0.44-0.165-0.973-0.016-0.373 0.146-0.828 0.154-0.392 0.479-0.687 0.317-0.293 0.34-0.235 0.364-0.187 0.404-0.136 0.414-0.076 1.108-0.091 0.453 0.096 0.592 0.361 0.234 0.269 0.131 0.227 1.026 2.257 1.118 3.878 0.23 0.488 0.344 0.418 0.453 0.303 0.512 0.17 0.536 0.02 0.585-0.148 16.056-6.396 0.554-0.117 0.646 0.165 0.461 0.355 0.316 0.552 0.135 0.579-0.178 0.659-0.365 0.467-0.321 0.203-16.97 6.73-0.417 0.238-0.363 0.344-0.266 0.424-0.141 0.463-0.028 0.504 0.115 0.543 4.456 12.663 0.243 0.317 0.353 0.299 0.309 0.166 0.438 0.129 0.42 0.029 2.285-0.052 1.178 0.246 5.056 2.188 0.158 0.009 0.225-0.08 0.147-0.157 0.063-0.186-0.019-0.168-0.481-2.75 0.032-0.623 0.33-0.588 0.564-0.367 2.828-1.104 1.145 9.62-14.438-2.345-0.498-0.005-0.488 0.106-0.486 0.254-0.816 0.573-0.384 0.351-0.309 0.502-4.367 9.668L45.908 88v0.558l0.17 0.526 0.344 0.527 2.518 2.811 0.262 0.453 0.106 0.365-0.05 0.555-0.182 0.402-0.306 0.344-0.369 0.224-0.387 0.118L47.193 94.979z" fill="#ea9937" data-fill-palette-color="accent"></path></g></svg></g></svg></g><g><path d="M8.606 105.983V105.983C8.521 106.084 8.43 106.137 8.334 106.143 8.237 106.148 8.165 106.085 8.119 105.954V105.954L7.181 103.288C7.097 103.05 7.131 102.858 7.285 102.712V102.712L11.037 98.967C11.127 98.844 11.068 98.745 10.858 98.67V98.67L8.924 97.986C8.828 97.956 8.712 97.965 8.574 98.014V98.014L6.078 98.892C5.814 98.985 5.628 98.878 5.52 98.57V98.57L4.724 96.31C4.673 96.165 4.667 96.058 4.706 95.988 4.745 95.918 4.824 95.862 4.943 95.82V95.82L15.614 92.064C15.827 91.989 15.965 92.039 16.027 92.215V92.215L16.928 94.776C16.99 94.952 16.924 95.074 16.729 95.143V95.143L12.529 96.621C12.416 96.661 12.366 96.7 12.379 96.738 12.395 96.781 12.447 96.82 12.536 96.852V96.852L17.939 98.58C18.064 98.614 18.165 98.66 18.242 98.717 18.314 98.783 18.38 98.901 18.44 99.071V99.071L19.173 101.152C19.226 101.303 19.223 101.424 19.163 101.515 19.104 101.607 19.007 101.623 18.873 101.564V101.564L14.682 100.002C14.517 99.954 14.366 99.997 14.23 100.13V100.13ZM22.438 107.291L23.852 109.61C23.949 109.77 23.909 109.903 23.733 110.01V110.01L14.107 115.876C13.965 115.963 13.848 115.988 13.755 115.95 13.653 115.911 13.561 115.823 13.477 115.687V115.687L12.23 113.641C12.151 113.51 12.123 113.406 12.146 113.33 12.17 113.253 12.235 113.182 12.343 113.116V113.116L22.003 107.229C22.196 107.112 22.341 107.132 22.438 107.291ZM27.952 114.925V114.925C28.118 115.098 28.325 115.314 28.573 115.574 28.822 115.834 29.084 116.108 29.36 116.396 29.631 116.68 29.887 116.947 30.126 117.197 30.365 117.447 30.549 117.649 30.677 117.803V117.803C31.661 118.889 32.296 119.948 32.584 120.981 32.872 122.004 32.857 122.985 32.54 123.924 32.213 124.863 31.628 125.735 30.787 126.54V126.54C29.93 127.359 29.009 127.913 28.024 128.202 27.043 128.496 26.036 128.473 25.003 128.135 23.975 127.792 22.969 127.106 21.984 126.076V126.076L19.286 123.255C19.092 123.053 19.102 122.851 19.313 122.648V122.648L27.416 114.898C27.517 114.802 27.608 114.757 27.687 114.763 27.767 114.77 27.856 114.824 27.952 114.925ZM28.405 118.706V118.706C28.331 118.629 28.239 118.643 28.128 118.749V118.749L23.078 123.58C22.967 123.685 22.96 123.789 23.057 123.89V123.89L23.202 124.041C23.74 124.604 24.28 124.995 24.821 125.214 25.367 125.429 25.938 125.449 26.535 125.274 27.133 125.089 27.763 124.68 28.427 124.045V124.045C29.033 123.465 29.448 122.898 29.673 122.342 29.897 121.796 29.927 121.251 29.765 120.706 29.604 120.152 29.254 119.593 28.715 119.03V119.03ZM43.61 131.624V131.624C43.55 131.314 43.435 130.993 43.263 130.661 43.096 130.324 42.737 129.986 42.187 129.648V129.648C41.642 129.314 41.189 129.161 40.828 129.189 40.467 129.217 40.214 129.35 40.067 129.588V129.588C40.005 129.691 39.97 129.81 39.964 129.947 39.955 130.09 39.99 130.255 40.069 130.445 40.148 130.634 40.301 130.842 40.53 131.068V131.068L42.396 133.046C43.121 133.812 43.519 134.576 43.59 135.338 43.663 136.109 43.487 136.841 43.062 137.533V137.533C42.657 138.19 42.131 138.66 41.482 138.941 40.833 139.222 40.109 139.3 39.31 139.177 38.511 139.053 37.672 138.721 36.793 138.181V138.181C36.135 137.777 35.565 137.325 35.082 136.826 34.6 136.327 34.224 135.807 33.955 135.266 33.676 134.728 33.542 134.208 33.553 133.707V133.707C33.556 133.576 33.577 133.484 33.618 133.431 33.667 133.375 33.76 133.338 33.896 133.32V133.32L35.661 133.233C35.832 133.221 35.953 133.248 36.021 133.313 36.094 133.374 36.134 133.449 36.141 133.539V133.539C36.18 133.946 36.255 134.301 36.366 134.603 36.471 134.902 36.636 135.175 36.859 135.422 37.083 135.668 37.381 135.907 37.756 136.136V136.136C38.312 136.478 38.804 136.667 39.234 136.705 39.667 136.752 39.982 136.613 40.181 136.29V136.29C40.261 136.16 40.299 136.015 40.295 135.856 40.296 135.701 40.254 135.535 40.168 135.357 40.085 135.173 39.939 134.974 39.727 134.758V134.758L37.966 132.914C37.518 132.436 37.191 131.931 36.987 131.399 36.776 130.864 36.69 130.338 36.726 129.821 36.76 129.295 36.918 128.802 37.2 128.343V128.343C37.562 127.753 38.062 127.322 38.698 127.048 39.332 126.766 40.046 126.673 40.838 126.769 41.625 126.862 42.438 127.166 43.277 127.682V127.682C43.81 128.009 44.281 128.381 44.69 128.796 45.099 129.211 45.429 129.648 45.678 130.106 45.923 130.561 46.065 131.003 46.105 131.434V131.434C46.106 131.521 46.099 131.602 46.083 131.679 46.064 131.761 45.993 131.807 45.87 131.817V131.817L43.916 131.964C43.828 131.981 43.764 131.964 43.723 131.916 43.679 131.873 43.641 131.776 43.61 131.624ZM53.518 145.56V145.56C52.456 145.231 51.6 144.699 50.95 143.961 50.3 143.224 49.896 142.346 49.736 141.329 49.575 140.318 49.674 139.233 50.031 138.076V138.076C50.405 136.868 50.958 135.889 51.691 135.14 52.423 134.398 53.277 133.91 54.255 133.676 55.233 133.442 56.26 133.491 57.334 133.823V133.823C58.231 134.1 58.963 134.504 59.531 135.035 60.104 135.568 60.522 136.153 60.785 136.792 61.039 137.435 61.139 138.047 61.084 138.63V138.63C61.07 138.834 61.038 138.96 60.988 139.007 60.939 139.055 60.853 139.074 60.73 139.064V139.064L58.265 138.688C58.157 138.655 58.094 138.611 58.076 138.556 58.06 138.496 58.056 138.418 58.065 138.323V138.323C58.11 137.996 58.09 137.676 58.006 137.364 57.923 137.046 57.767 136.761 57.539 136.509 57.31 136.257 56.998 136.071 56.604 135.949V135.949C56.165 135.813 55.746 135.816 55.347 135.957 54.953 136.107 54.587 136.422 54.25 136.903 53.913 137.384 53.604 138.08 53.323 138.989V138.989C53.026 139.949 52.889 140.732 52.91 141.338 52.926 141.942 53.066 142.414 53.33 142.753 53.59 143.084 53.949 143.321 54.406 143.462V143.462C54.674 143.545 54.923 143.584 55.154 143.579 55.388 143.567 55.607 143.523 55.812 143.447 56.01 143.369 56.19 143.261 56.351 143.123 56.512 142.985 56.655 142.827 56.779 142.649V142.649L56.896 142.372C57.011 142.226 56.989 142.129 56.83 142.08V142.08L55.18 141.57C55.084 141.54 55.021 141.496 54.991 141.438 54.952 141.384 54.952 141.293 54.991 141.166V141.166L55.401 139.84C55.45 139.681 55.573 139.632 55.77 139.693V139.693L60.003 141.044C60.169 141.095 60.284 141.172 60.349 141.276 60.409 141.378 60.419 141.49 60.382 141.61V141.61L58.792 146.752C58.771 146.822 58.733 146.876 58.679 146.915 58.621 146.946 58.55 146.949 58.468 146.923V146.923L57.934 146.758C57.838 146.728 57.761 146.684 57.703 146.624 57.641 146.556 57.597 146.462 57.571 146.343V146.343L57.334 145.183C57.322 145.13 57.304 145.1 57.278 145.092 57.253 145.084 57.215 145.104 57.166 145.151V145.151C56.912 145.296 56.618 145.435 56.284 145.569 55.957 145.704 55.566 145.785 55.112 145.812 54.659 145.833 54.128 145.749 53.518 145.56ZM66.994 148.213V148.213C66.887 148.21 66.809 148.158 66.759 148.056 66.715 147.949 66.722 147.819 66.78 147.668V147.668L71.086 136.646C71.136 136.527 71.195 136.443 71.263 136.391 71.325 136.34 71.422 136.316 71.555 136.32V136.32L74.37 136.402C74.642 136.41 74.821 136.551 74.907 136.827V136.827L78.525 148.05C78.556 148.144 78.553 148.25 78.516 148.369 78.479 148.488 78.401 148.545 78.281 148.542V148.542L75.497 148.461C75.324 148.456 75.213 148.366 75.165 148.191V148.191L74.508 146.065C74.489 146.024 74.467 145.984 74.441 145.943 74.416 145.902 74.36 145.881 74.273 145.878V145.878L70.601 145.771C70.481 145.768 70.403 145.825 70.366 145.944V145.944L69.545 148.058C69.523 148.124 69.482 148.179 69.421 148.224 69.366 148.262 69.286 148.28 69.179 148.277V148.277ZM71.371 143.336L73.616 143.402C73.769 143.406 73.822 143.305 73.775 143.097V143.097L72.702 139.809C72.684 139.755 72.651 139.728 72.605 139.727 72.565 139.725 72.531 139.751 72.503 139.803V139.803L71.23 143.023C71.151 143.227 71.198 143.331 71.371 143.336ZM84.164 136.112V136.112C84.115 135.892 84.181 135.761 84.363 135.72V135.72L87.014 135.129C87.196 135.088 87.309 135.168 87.354 135.37V135.37L89.34 144.266C89.37 144.403 89.444 144.458 89.561 144.432V144.432L94.462 143.338C94.683 143.289 94.814 143.355 94.854 143.537V143.537L95.244 145.281C95.263 145.366 95.249 145.443 95.204 145.515 95.16 145.593 95.073 145.647 94.943 145.676V145.676L87.089 147.429C86.94 147.462 86.832 147.455 86.767 147.408 86.702 147.361 86.656 147.276 86.629 147.153V147.153ZM97.869 132.156V132.156C97.77 131.952 97.804 131.81 97.971 131.728V131.728L100.41 130.534C100.578 130.452 100.707 130.504 100.798 130.689V130.689L104.804 138.877C104.866 139.002 104.95 139.039 105.058 138.986V138.986L109.569 136.779C109.772 136.679 109.915 136.713 109.997 136.881V136.881L110.782 138.486C110.82 138.564 110.826 138.643 110.798 138.723 110.774 138.809 110.702 138.881 110.582 138.94V138.94L103.354 142.477C103.216 142.544 103.11 142.563 103.036 142.532 102.962 142.502 102.897 142.43 102.842 142.316V142.316ZM110.262 125.121V125.121C110.117 124.947 110.117 124.8 110.26 124.681V124.681L116.776 119.275C116.909 119.164 117.041 119.188 117.173 119.347V119.347L118.251 120.646C118.416 120.845 118.399 121.028 118.2 121.194V121.194L114.35 124.388C114.176 124.533 114.151 124.679 114.274 124.828V124.828L115.441 126.234C115.572 126.393 115.705 126.417 115.838 126.306V126.306L118.266 124.292C118.425 124.16 118.566 124.168 118.689 124.317V124.317L119.837 125.7C119.879 125.751 119.9 125.807 119.899 125.869 119.907 125.931 119.873 125.994 119.796 126.058V126.058L117.315 128.117C117.192 128.219 117.177 128.326 117.27 128.439V128.439L118.584 130.022C118.673 130.129 118.764 130.145 118.856 130.068V130.068L123.005 126.625C123.169 126.489 123.31 126.493 123.429 126.637V126.637L124.571 128.012C124.626 128.078 124.652 128.152 124.649 128.232 124.651 128.317 124.606 128.398 124.513 128.475V128.475L118.021 133.862C117.821 134.028 117.643 134.016 117.485 133.826V133.826ZM135.921 113.484V113.484C136.06 113.519 136.15 113.589 136.19 113.692 136.236 113.799 136.223 113.901 136.153 113.998V113.998L134.528 116.236C134.407 116.403 134.243 116.453 134.037 116.386V116.386L129.564 115.137C129.391 115.094 129.227 115.177 129.075 115.387V115.387L128.418 116.292C128.375 116.351 128.365 116.405 128.387 116.454 128.403 116.499 128.425 116.531 128.452 116.551V116.551L131.927 119.073C132.164 119.245 132.186 119.463 131.995 119.727V119.727L130.575 121.682C130.493 121.795 130.412 121.856 130.333 121.864 130.253 121.872 130.162 121.838 130.059 121.764V121.764L120.905 115.119C120.722 114.986 120.685 114.844 120.794 114.694V114.694L123.873 110.451C124.761 109.229 125.686 108.453 126.649 108.123 127.606 107.79 128.524 107.942 129.402 108.58V108.58C129.827 108.888 130.159 109.248 130.395 109.658 130.632 110.069 130.773 110.492 130.819 110.928 130.873 111.362 130.841 111.792 130.723 112.216V112.216C130.697 112.32 130.761 112.395 130.916 112.442V112.442ZM127.75 113.524V113.524C128.055 113.104 128.188 112.711 128.149 112.346 128.111 111.989 127.923 111.688 127.583 111.442V111.442C127.206 111.168 126.828 111.083 126.449 111.186 126.075 111.293 125.757 111.527 125.495 111.888V111.888L124.498 113.262C124.365 113.445 124.377 113.593 124.533 113.706V113.706L126.287 114.979C126.464 115.108 126.6 115.108 126.694 114.979V114.979ZM132.561 92.497V92.497C132.61 92.373 132.671 92.308 132.745 92.301 132.815 92.285 132.885 92.326 132.954 92.425V92.425L137.345 98.213C137.414 98.311 137.499 98.387 137.6 98.44 137.704 98.502 137.902 98.59 138.194 98.703V98.703L142 100.183C142.273 100.289 142.351 100.491 142.236 100.789V100.789L141.367 103.022C141.312 103.165 141.247 103.25 141.172 103.278 141.096 103.306 141 103.297 140.882 103.251V103.251L136.862 101.688C136.713 101.631 136.595 101.603 136.509 101.605 136.416 101.604 136.304 101.618 136.172 101.645V101.645L128.955 102.932C128.822 102.944 128.725 102.918 128.665 102.851 128.608 102.779 128.608 102.668 128.666 102.52V102.52L129.696 99.867C129.752 99.725 129.809 99.633 129.868 99.591 129.933 99.552 130.035 99.52 130.173 99.496V99.496L134.604 98.872C134.712 98.85 134.776 98.825 134.794 98.796 134.815 98.761 134.794 98.696 134.731 98.6V98.6L131.851 95.178C131.749 95.074 131.694 94.985 131.688 94.91 131.677 94.828 131.697 94.721 131.747 94.591V94.591Z" fill="#ea9937" data-fill-palette-color="accent"></path><path d="M15.745 48.438V48.438C15.88 48.415 15.984 48.43 16.057 48.484 16.136 48.54 16.152 48.634 16.106 48.766V48.766L15.184 51.394C15.1 51.633 14.953 51.761 14.742 51.779V51.779L9.548 52.348C9.4 52.388 9.382 52.501 9.492 52.688V52.688L10.574 54.401C10.621 54.488 10.714 54.556 10.852 54.604V54.604L13.311 55.467C13.574 55.559 13.653 55.756 13.548 56.058V56.058L12.764 58.291C12.716 58.429 12.655 58.513 12.58 58.544 12.506 58.574 12.409 58.568 12.29 58.526V58.526L1.757 54.831C1.55 54.758 1.476 54.637 1.536 54.467V54.467L2.425 51.933C2.484 51.764 2.608 51.712 2.797 51.778V51.778L6.951 53.236C7.058 53.273 7.119 53.27 7.135 53.226 7.148 53.188 7.131 53.126 7.084 53.039V53.039L3.99 48.377C3.914 48.273 3.867 48.175 3.849 48.084 3.832 47.993 3.853 47.863 3.912 47.694V47.694L4.633 45.64C4.686 45.489 4.76 45.399 4.855 45.369 4.959 45.334 5.045 45.379 5.115 45.502V45.502L7.379 49.302C7.48 49.436 7.622 49.496 7.803 49.482V49.482ZM9.316 36.495L10.712 34.201C10.806 34.047 10.938 34.022 11.109 34.126V34.126L20.617 39.915C20.754 39.999 20.827 40.09 20.836 40.189 20.852 40.292 20.818 40.412 20.735 40.548V40.548L19.504 42.569C19.428 42.694 19.35 42.764 19.271 42.778 19.193 42.793 19.099 42.767 18.991 42.701V42.701L9.457 36.896C9.269 36.782 9.222 36.648 9.316 36.495ZM16.901 26.163V26.163C17.063 25.995 17.267 25.781 17.516 25.521 17.764 25.262 18.022 24.992 18.289 24.713 18.56 24.43 18.814 24.165 19.048 23.92 19.283 23.675 19.474 23.48 19.622 23.335V23.335C20.649 22.329 21.663 21.659 22.663 21.326 23.668 20.998 24.637 20.972 25.571 21.248 26.514 21.524 27.401 22.06 28.233 22.856V22.856C29.08 23.666 29.666 24.55 29.993 25.508 30.32 26.466 30.34 27.461 30.052 28.494 29.764 29.517 29.132 30.538 28.156 31.558V31.558L25.492 34.342C25.303 34.54 25.105 34.539 24.899 34.341V34.341L16.899 26.686C16.803 26.594 16.756 26.508 16.759 26.428 16.757 26.352 16.805 26.264 16.901 26.163ZM20.602 25.545V25.545C20.529 25.622 20.547 25.714 20.658 25.819V25.819L25.649 30.596C25.755 30.697 25.856 30.698 25.953 30.597V30.597L26.098 30.445C26.627 29.892 26.987 29.343 27.178 28.797 27.373 28.247 27.367 27.684 27.162 27.11 26.956 26.526 26.526 25.921 25.872 25.295V25.295C25.271 24.72 24.695 24.335 24.145 24.14 23.594 23.945 23.053 23.938 22.52 24.119 21.978 24.3 21.442 24.668 20.913 25.221V25.221ZM38.71 12.172V12.172C38.407 12.085 38.068 12.042 37.695 12.045 37.328 12.044 36.871 12.211 36.327 12.545V12.545C35.794 12.873 35.456 13.201 35.315 13.53 35.182 13.861 35.187 14.143 35.33 14.376V14.376C35.393 14.478 35.484 14.562 35.603 14.63 35.72 14.706 35.879 14.749 36.081 14.758 36.285 14.773 36.537 14.732 36.836 14.634V14.634L39.419 13.88C40.409 13.585 41.259 13.575 41.967 13.851 42.675 14.127 43.238 14.605 43.656 15.286V15.286C44.06 15.944 44.24 16.619 44.196 17.31 44.155 18.007 43.904 18.68 43.444 19.329 42.974 19.977 42.303 20.569 41.429 21.105V21.105C40.788 21.498 40.139 21.796 39.481 21.996 38.821 22.206 38.194 22.31 37.599 22.308 37.001 22.301 36.482 22.181 36.044 21.951V21.951C35.931 21.895 35.863 21.835 35.84 21.771 35.807 21.705 35.815 21.61 35.864 21.487V21.487L36.576 19.878C36.641 19.729 36.716 19.636 36.802 19.599 36.892 19.567 36.979 19.568 37.063 19.603V19.603C37.434 19.75 37.777 19.844 38.091 19.885 38.402 19.921 38.715 19.897 39.031 19.812 39.348 19.719 39.691 19.559 40.06 19.333V19.333C40.605 18.999 40.993 18.651 41.224 18.29 41.456 17.929 41.474 17.59 41.279 17.273V17.273C41.202 17.148 41.095 17.049 40.958 16.978 40.82 16.906 40.652 16.868 40.455 16.865 40.257 16.861 40.017 16.903 39.735 16.99V16.99L37.325 17.72C36.701 17.9 36.11 17.962 35.552 17.906 34.986 17.848 34.482 17.688 34.041 17.428 33.596 17.162 33.235 16.802 32.956 16.348V16.348C32.597 15.764 32.439 15.131 32.481 14.449 32.518 13.77 32.753 13.103 33.185 12.447 33.627 11.793 34.263 11.212 35.091 10.703V10.703C35.613 10.383 36.15 10.131 36.701 9.949 37.251 9.776 37.781 9.685 38.291 9.676 38.803 9.658 39.256 9.728 39.649 9.885V9.885C39.725 9.932 39.794 9.98 39.855 10.028 39.916 10.077 39.926 10.157 39.884 10.268V10.268L39.144 12.058C39.115 12.138 39.074 12.186 39.022 12.203 38.961 12.217 38.857 12.207 38.71 12.172ZM56.151 14.638V14.638C55.102 14.961 54.108 15.003 53.17 14.763 52.232 14.523 51.416 14.034 50.721 13.294 50.02 12.556 49.493 11.618 49.142 10.479V10.479C48.773 9.283 48.683 8.179 48.872 7.167 49.052 6.15 49.475 5.274 50.14 4.539 50.805 3.805 51.669 3.273 52.731 2.946V2.946C53.615 2.673 54.437 2.593 55.196 2.707 55.958 2.827 56.623 3.075 57.191 3.45 57.76 3.825 58.182 4.266 58.457 4.773V4.773C58.56 4.95 58.605 5.072 58.59 5.139 58.576 5.206 58.518 5.266 58.416 5.318V5.318L56.197 6.39C56.089 6.423 56.012 6.422 55.966 6.388 55.921 6.353 55.874 6.291 55.825 6.201V6.201C55.68 5.912 55.485 5.662 55.239 5.452 55.001 5.247 54.717 5.105 54.386 5.026 54.062 4.945 53.706 4.964 53.318 5.084V5.084C52.879 5.219 52.541 5.456 52.304 5.794 52.06 6.134 51.937 6.593 51.935 7.172 51.926 7.753 52.06 8.492 52.337 9.389V9.389C52.629 10.336 52.951 11.052 53.303 11.536 53.654 12.019 54.03 12.325 54.432 12.452 54.833 12.578 55.256 12.573 55.701 12.436V12.436C55.969 12.353 56.196 12.245 56.385 12.11 56.571 11.969 56.724 11.81 56.844 11.634 56.957 11.46 57.042 11.273 57.099 11.074 57.155 10.869 57.184 10.662 57.189 10.451V10.451L57.129 10.156C57.136 9.973 57.062 9.905 56.91 9.952V9.952L55.278 10.456C55.189 10.483 55.114 10.486 55.051 10.463 54.993 10.432 54.945 10.357 54.908 10.236V10.236L54.501 8.919C54.454 8.767 54.529 8.66 54.726 8.599V8.599L58.914 7.338C59.079 7.287 59.218 7.286 59.331 7.335 59.437 7.386 59.51 7.475 59.549 7.602V7.602L61.112 12.668C61.136 12.744 61.135 12.81 61.111 12.867 61.08 12.925 61.027 12.966 60.95 12.989V12.989L60.416 13.154C60.321 13.184 60.232 13.19 60.15 13.173 60.067 13.15 59.977 13.098 59.882 13.016V13.016L59.048 12.208C59.015 12.169 58.986 12.154 58.96 12.161 58.935 12.169 58.914 12.204 58.898 12.264V12.264C58.77 12.527 58.609 12.806 58.415 13.103 58.221 13.4 57.946 13.683 57.591 13.953 57.229 14.225 56.749 14.453 56.151 14.638ZM67.333 12.056V12.056C67.226 12.059 67.148 12.012 67.099 11.913 67.049 11.815 67.049 11.688 67.098 11.534V11.534L70.714 0.422C70.75 0.308 70.801 0.223 70.866 0.168 70.924 0.113 71.017 0.084 71.143 0.08V0.08L73.928 0C74.194-0.007 74.381 0.12 74.488 0.384V0.384L78.686 11.23C78.722 11.329 78.725 11.435 78.695 11.549 78.665 11.67 78.59 11.732 78.471 11.736V11.736L75.726 11.815C75.553 11.82 75.437 11.736 75.379 11.565V11.565L74.621 9.509C74.6 9.47 74.575 9.431 74.548 9.391 74.52 9.359 74.463 9.344 74.376 9.346V9.346L70.744 9.451C70.631 9.454 70.559 9.513 70.529 9.627V9.627L69.841 11.764C69.817 11.825 69.778 11.879 69.726 11.927 69.674 11.969 69.595 11.991 69.488 11.994V11.994ZM71.362 6.996L73.588 6.932C73.734 6.928 73.778 6.827 73.719 6.629V6.629L72.479 3.448C72.457 3.395 72.423 3.37 72.377 3.371 72.337 3.372 72.307 3.4 72.289 3.454V3.454L71.214 6.701C71.14 6.903 71.189 7.001 71.362 6.996ZM87.451 1.325V1.325C87.499 1.111 87.61 1.023 87.786 1.062V1.062L90.407 1.649C90.582 1.688 90.648 1.805 90.604 2V2L88.638 10.788C88.608 10.925 88.651 11.006 88.768 11.032V11.032L93.6 12.114C93.821 12.163 93.912 12.275 93.873 12.451V12.451L93.489 14.166C93.47 14.25 93.425 14.315 93.353 14.36 93.28 14.412 93.182 14.424 93.059 14.397V14.397L85.303 12.661C85.16 12.629 85.069 12.578 85.03 12.508 84.992 12.438 84.986 12.341 85.014 12.218V12.218ZM104.43 6.455V6.455C104.527 6.257 104.656 6.198 104.817 6.278V6.278L107.228 7.46C107.39 7.539 107.427 7.669 107.339 7.848V7.848L103.373 15.933C103.311 16.059 103.334 16.148 103.442 16.201V16.201L107.888 18.381C108.091 18.481 108.153 18.612 108.074 18.773V18.773L107.301 20.351C107.262 20.428 107.203 20.481 107.123 20.508 107.04 20.542 106.942 20.531 106.828 20.475V20.475L99.693 16.975C99.561 16.911 99.485 16.84 99.463 16.763 99.442 16.685 99.459 16.59 99.515 16.476V16.476ZM119.753 15.418V15.418C119.893 15.249 120.032 15.222 120.171 15.337V15.337L126.603 20.688C126.731 20.794 126.731 20.924 126.603 21.078V21.078L125.537 22.359C125.375 22.554 125.197 22.57 125.002 22.408V22.408L121.203 19.248C121.029 19.103 120.88 19.105 120.757 19.253V19.253L119.601 20.643C119.473 20.796 119.476 20.928 119.609 21.039V21.039L122.004 23.031C122.163 23.163 122.18 23.303 122.057 23.452V23.452L120.92 24.818C120.878 24.869 120.826 24.9 120.765 24.91 120.705 24.92 120.639 24.896 120.567 24.836V24.836L118.119 22.799C117.996 22.697 117.888 22.702 117.794 22.815V22.815L116.492 24.381C116.402 24.488 116.403 24.58 116.496 24.657V24.657L120.587 28.06C120.75 28.196 120.775 28.333 120.66 28.472V28.472L119.536 29.822C119.481 29.889 119.413 29.928 119.334 29.94 119.251 29.957 119.165 29.93 119.078 29.857V29.857L112.669 24.526C112.475 24.364 112.456 24.188 112.614 23.999V23.999ZM129.802 42.719V42.719C129.731 42.836 129.637 42.9 129.521 42.91 129.414 42.921 129.326 42.878 129.256 42.781V42.781L127.652 40.565C127.535 40.403 127.538 40.237 127.66 40.066V40.066L130.21 36.249C130.3 36.101 130.271 35.925 130.123 35.72V35.72L129.473 34.822C129.431 34.763 129.385 34.734 129.337 34.736 129.284 34.742 129.246 34.753 129.225 34.768V34.768L125.787 37.256C125.555 37.424 125.346 37.378 125.158 37.119V37.119L123.765 35.194C123.683 35.081 123.651 34.985 123.668 34.907 123.686 34.829 123.746 34.753 123.848 34.678V34.678L132.891 28.134C133.069 28.006 133.21 28.014 133.316 28.16V28.16L136.354 32.357C137.228 33.565 137.673 34.669 137.689 35.668 137.704 36.676 137.28 37.492 136.417 38.116V38.116C135.997 38.421 135.557 38.62 135.099 38.713 134.641 38.806 134.199 38.809 133.775 38.722 133.35 38.635 132.957 38.472 132.595 38.233V38.233C132.508 38.181 132.418 38.221 132.325 38.354V38.354ZM132.284 35.044V35.044C132.584 35.459 132.909 35.704 133.26 35.78 133.61 35.855 133.952 35.771 134.286 35.53V35.53C134.658 35.26 134.852 34.931 134.866 34.543 134.885 34.16 134.765 33.79 134.508 33.434V33.434L133.525 32.075C133.392 31.892 133.25 31.855 133.099 31.964V31.964L131.36 33.223C131.187 33.348 131.148 33.475 131.242 33.604V33.604ZM146.88 53.728V53.728C146.928 53.852 146.93 53.94 146.886 53.993 146.838 54.054 146.759 54.071 146.648 54.042V54.042L139.595 52.746C139.484 52.718 139.37 52.719 139.254 52.75 139.135 52.775 138.932 52.842 138.647 52.953V52.953L134.885 54.408C134.618 54.512 134.427 54.414 134.312 54.116V54.116L133.458 51.91C133.405 51.773 133.397 51.669 133.433 51.598 133.47 51.526 133.547 51.468 133.665 51.422V51.422L137.632 49.887C137.781 49.83 137.887 49.771 137.949 49.711 138.012 49.651 138.086 49.566 138.171 49.454V49.454L142.571 43.726C142.652 43.623 142.737 43.576 142.826 43.585 142.917 43.599 142.992 43.681 143.05 43.83V43.83L144.066 46.456C144.119 46.592 144.137 46.696 144.122 46.766 144.106 46.836 144.055 46.927 143.97 47.039V47.039L141.154 50.441C141.087 50.524 141.057 50.586 141.065 50.625 141.071 50.659 141.129 50.69 141.24 50.718V50.718L145.62 51.303C145.758 51.307 145.857 51.333 145.918 51.381 145.975 51.437 146.029 51.53 146.08 51.661V51.661Z" fill="#ea9937" data-fill-palette-color="accent"></path><path d="M1.457 75.877C1.457 73.341 3.513 71.285 6.049 71.285 8.585 71.285 10.641 73.341 10.641 75.877 10.641 78.413 8.585 80.469 6.049 80.469 3.513 80.469 1.457 78.413 1.457 75.877ZM137.901 75.877C137.901 73.341 139.957 71.285 142.493 71.285 145.029 71.285 147.085 73.341 147.085 75.877 147.085 78.413 145.029 80.469 142.493 80.469 139.957 80.469 137.901 78.413 137.901 75.877Z" fill="#ea9937" data-fill-palette-color="accent"></path></g></svg></g></svg></g></svg></g><defs></defs></svg><rect width="395.52" height="103.38209308747204" fill="none" stroke="none" visibility="hidden"></rect></g></svg></g></svg>